<?xml version="1.0" encoding="UTF-8"?>
<svg version="1.1" xmlns="http://www.w3.org/2000/svg" width="1000" height="1000">
<path d="M0 0 C330 0 660 0 1000 0 C1000 330 1000 660 1000 1000 C670 1000 340 1000 0 1000 C0 670 0 340 0 0 Z " fill="#FEFEFE" transform="translate(0,0)"/>
<path d="M0 0 C0.90202148 0.13422363 1.80404297 0.26844727 2.73339844 0.40673828 C15.2112037 2.29408471 27.11049258 4.76264935 39 9 C40.22976563 9.41765625 41.45953125 9.8353125 42.7265625 10.265625 C81.02176737 23.61881695 115.89047428 48.10528403 141 80 C141.77988281 80.95132813 142.55976562 81.90265625 143.36328125 82.8828125 C177.28146999 125.18588043 193.64529261 181.77237073 188.42578125 235.5859375 C187.207841 246.48418482 185.50206084 257.32047204 183 268 C182.72542969 269.17949219 182.45085937 270.35898437 182.16796875 271.57421875 C174.53504919 302.13837751 160.05197051 330.72577677 140 355 C139.525625 355.57588867 139.05125 356.15177734 138.5625 356.74511719 C128.97383177 368.31269677 118.83860376 378.69482558 107 388 C105.48599609 389.22203125 105.48599609 389.22203125 103.94140625 390.46875 C96.05494561 396.76914088 87.79876962 402.06729354 79 407 C78.28070312 407.40750488 77.56140625 407.81500977 76.8203125 408.23486328 C61.59989948 416.78976238 45.77018198 423.168637 29 428 C27.83597656 428.33902344 26.67195313 428.67804688 25.47265625 429.02734375 C-4.55389742 437.04130366 -36.43187071 439.11035829 -67 433 C-68.05525879 432.79600586 -69.11051758 432.59201172 -70.19775391 432.38183594 C-106.31354193 425.28775549 -139.50117258 410.54174804 -168 387 C-168.86383301 386.2884375 -168.86383301 386.2884375 -169.74511719 385.5625 C-181.31269677 375.97383177 -191.69482558 365.83860376 -201 354 C-202.22203125 352.48599609 -202.22203125 352.48599609 -203.46875 350.94140625 C-209.77086524 343.05278715 -215.05490274 334.79384612 -220 326 C-220.39687012 325.30729004 -220.79374023 324.61458008 -221.20263672 323.90087891 C-232.54305721 303.97754595 -240.79682837 282.55003557 -245 260 C-245.19319824 258.99984863 -245.38639648 257.99969727 -245.58544922 256.96923828 C-255.80301113 202.57844544 -245.07348958 144.15716083 -214.13891602 97.90234375 C-212.77732059 95.92148821 -211.39368419 93.95838764 -210 92 C-209.53126465 91.33210449 -209.0625293 90.66420898 -208.57958984 89.97607422 C-201.20212602 79.5327811 -193.01609616 70.05861312 -184 61 C-183.44618652 60.4421582 -182.89237305 59.88431641 -182.32177734 59.30957031 C-166.91636654 43.98148221 -149.17387199 32.1029155 -130 22 C-128.81736572 21.37569092 -128.81736572 21.37569092 -127.61083984 20.73876953 C-88.80973012 0.5903104 -43.17359529 -6.68141431 0 0 Z " fill="#FEFDFE" transform="translate(530,283)"/>
<path d="M0 0 C0.90202148 0.13422363 1.80404297 0.26844727 2.73339844 0.40673828 C15.2112037 2.29408471 27.11049258 4.76264935 39 9 C40.22976563 9.41765625 41.45953125 9.8353125 42.7265625 10.265625 C81.02176737 23.61881695 115.89047428 48.10528403 141 80 C141.77988281 80.95132813 142.55976562 81.90265625 143.36328125 82.8828125 C177.28146999 125.18588043 193.64529261 181.77237073 188.42578125 235.5859375 C187.207841 246.48418482 185.50206084 257.32047204 183 268 C182.72542969 269.17949219 182.45085937 270.35898437 182.16796875 271.57421875 C174.53504919 302.13837751 160.05197051 330.72577677 140 355 C139.525625 355.57588867 139.05125 356.15177734 138.5625 356.74511719 C128.97383177 368.31269677 118.83860376 378.69482558 107 388 C105.48599609 389.22203125 105.48599609 389.22203125 103.94140625 390.46875 C96.05494561 396.76914088 87.79876962 402.06729354 79 407 C78.28070312 407.40750488 77.56140625 407.81500977 76.8203125 408.23486328 C61.59989948 416.78976238 45.77018198 423.168637 29 428 C27.83597656 428.33902344 26.67195313 428.67804688 25.47265625 429.02734375 C-4.55389742 437.04130366 -36.43187071 439.11035829 -67 433 C-68.05525879 432.79600586 -69.11051758 432.59201172 -70.19775391 432.38183594 C-106.31354193 425.28775549 -139.50117258 410.54174804 -168 387 C-168.86383301 386.2884375 -168.86383301 386.2884375 -169.74511719 385.5625 C-181.31269677 375.97383177 -191.69482558 365.83860376 -201 354 C-202.22203125 352.48599609 -202.22203125 352.48599609 -203.46875 350.94140625 C-209.77086524 343.05278715 -215.05490274 334.79384612 -220 326 C-220.39687012 325.30729004 -220.79374023 324.61458008 -221.20263672 323.90087891 C-232.54305721 303.97754595 -240.79682837 282.55003557 -245 260 C-245.19319824 258.99984863 -245.38639648 257.99969727 -245.58544922 256.96923828 C-255.80301113 202.57844544 -245.07348958 144.15716083 -214.13891602 97.90234375 C-212.77732059 95.92148821 -211.39368419 93.95838764 -210 92 C-209.53126465 91.33210449 -209.0625293 90.66420898 -208.57958984 89.97607422 C-201.20212602 79.5327811 -193.01609616 70.05861312 -184 61 C-183.44618652 60.4421582 -182.89237305 59.88431641 -182.32177734 59.30957031 C-166.91636654 43.98148221 -149.17387199 32.1029155 -130 22 C-128.81736572 21.37569092 -128.81736572 21.37569092 -127.61083984 20.73876953 C-88.80973012 0.5903104 -43.17359529 -6.68141431 0 0 Z M-71 11 C-71.72364746 11.14453613 -72.44729492 11.28907227 -73.19287109 11.43798828 C-103.90667568 17.61082726 -132.1046999 31.10624546 -157 50 C-157.86625 50.65355469 -158.7325 51.30710937 -159.625 51.98046875 C-186.96605583 73.23112913 -207.589322 100.60836004 -222 132 C-222.33386719 132.72719238 -222.66773438 133.45438477 -223.01171875 134.20361328 C-229.61508942 148.89990806 -233.69237227 164.25779582 -237 180 C-237.20608887 180.97493408 -237.41217773 181.94986816 -237.62451172 182.9543457 C-239.57694023 193.65090211 -239.3984615 204.47708747 -239.375 215.3125 C-239.3737915 216.33944977 -239.37258301 217.36639954 -239.37133789 218.42446899 C-239.32265975 233.64336199 -238.87834404 248.20159708 -235 263 C-234.58137695 264.62276855 -234.58137695 264.62276855 -234.15429688 266.27832031 C-225.20056528 300.14471697 -210.23776439 329.73576031 -187 356 C-185.89398438 357.28970703 -185.89398438 357.28970703 -184.765625 358.60546875 C-166.202055 379.91292409 -142.59754639 396.25548042 -117 408 C-115.81921875 408.54269531 -114.6384375 409.08539062 -113.421875 409.64453125 C-100.44218883 415.39226223 -87.53113928 419.25309016 -73.6875 422.25 C-72.49495605 422.50845703 -71.30241211 422.76691406 -70.07373047 423.03320312 C-17.98124315 433.93577477 38.45178393 422.75662649 83 394 C126.21533499 365.34706967 157.63683201 324.00936844 172 274 C172.20560547 273.29085449 172.41121094 272.58170898 172.62304688 271.85107422 C177.66038558 254.11438416 179.53773179 236.51598724 179.375 218.125 C179.36901794 216.74684616 179.36901794 216.74684616 179.36291504 215.34085083 C179.29518394 202.02720348 178.82987558 189.05306537 176 176 C175.85546387 175.27780273 175.71092773 174.55560547 175.56201172 173.81152344 C165.19979676 122.24143036 133.40258074 74.12655068 89.83007812 44.52587891 C73.08312789 33.40010965 55.81207121 25.02989842 37 18 C36.35192383 17.75121094 35.70384766 17.50242187 35.03613281 17.24609375 C2.95866467 5.12832381 -37.63825729 3.82205444 -71 11 Z " fill="#4D21A3" transform="translate(530,283)"/>
<path d="M0 0 C0.99 0 1.98 0 3 0 C3.02696365 1.79158489 3.04637917 3.58328473 3.0625 5.375 C3.07410156 6.37273437 3.08570313 7.37046875 3.09765625 8.3984375 C3 11 3 11 2 13 C1.33190789 18.61197375 3.30757061 22.26420902 6 27 C6.66 26.67 7.32 26.34 8 26 C7.525625 25.113125 7.05125 24.22625 6.5625 23.3125 C3.75180941 17.35383594 3.90024882 14.29925355 6 8 C8.25 7.25 8.25 7.25 11 7 C13.375 8.6875 13.375 8.6875 15 11 C14.75 13.25 14.75 13.25 14 15 C11.69 15.33 9.38 15.66 7 16 C7.39651917 17.31872662 7.81798691 18.62997101 8.25 19.9375 C8.59804688 21.03384766 8.59804688 21.03384766 8.953125 22.15234375 C9.8507553 24.20570556 9.8507553 24.20570556 12.109375 24.75390625 C12.73328125 24.83511719 13.3571875 24.91632813 14 25 C13.979375 24.030625 13.95875 23.06125 13.9375 22.0625 C14 19 14 19 15 18 C17.5 17.875 17.5 17.875 20 18 C21 19 21 19 21.1875 21.375 C21 24 21 24 19 27 C20.65 27.66 22.3 28.32 24 29 C20.42355152 30.2380014 17.66305234 29.74926071 14 29 C14.33 29.33 14.66 29.66 15 30 C14.71269945 32.33944736 14.38063221 34.6739143 14 37 C16.19832713 38.73666727 16.19832713 38.73666727 19 40 C20.68949614 39.39351421 22.35636866 38.72159424 24 38 C27.125 38.0625 27.125 38.0625 30 39 C31.875 41.5625 31.875 41.5625 33 44 C33.37125 43.505 33.7425 43.01 34.125 42.5 C36 41 36 41 39 40.625 C42 41 42 41 43.875 42.1875 C45.34781139 44.56036279 45.22223194 46.25913944 45 49 C45.66 49 46.32 49 47 49 C48.49106457 51.98212913 48.11941467 54.71609658 48 58 C47.67 58.33 47.34 58.66 47 59 C47.66 59.37125 48.32 59.7425 49 60.125 C51 62 51 62 51.25 65.1875 C51.1675 66.115625 51.085 67.04375 51 68 C49.02 68.99 49.02 68.99 47 70 C47.11859375 70.61488281 47.2371875 71.22976563 47.359375 71.86328125 C47.74544295 74.28392731 48.03913472 76.54755759 48 79 C46.1875 81.0625 46.1875 81.0625 44 82 C43.34 82 42.68 82 42 82 C41.79375 82.639375 41.5875 83.27875 41.375 83.9375 C40 86 40 86 36.875 86.75 C35.92625 86.8325 34.9775 86.915 34 87 C33.23043864 89.34533951 33.23043864 89.34533951 33 92 C33.495 92.474375 33.99 92.94875 34.5 93.4375 C34.995 93.953125 35.49 94.46875 36 95 C35.76467132 97.76511195 35.19144897 100.25813524 34.5 102.9375 C33.77526083 105.92704907 33.41007459 108.95373165 33 112 C31.35 112.66 29.7 113.32 28 114 C28.66 114.66 29.32 115.32 30 116 C29.75 119.5625 29.75 119.5625 29 123 C26.23749964 124.38125018 24.05268901 124.19079306 21 124 C19 122 19 122 18.8125 119 C19 116 19 116 20 114 C19.34 114 18.68 114 18 114 C16.7653777 117.24088354 15.99402955 119.69550714 16.0625 123.1875 C16 126 16 126 14.8125 127.875 C12.34492892 129.40659584 10.85480169 129.42822025 8 129 C6.1875 127.875 6.1875 127.875 5 126 C4.69609209 122.42908207 5.0066662 119.4214831 6 116 C6.34060811 114.33480481 6.67558396 112.66842534 7 111 C2.23947038 109.02612187 -0.96488101 108.9929762 -6 110 C-7.5625 108.375 -7.5625 108.375 -9 106 C-8.6875 102.75 -8.6875 102.75 -8 100 C-7.01 99.67 -6.02 99.34 -5 99 C-5.20625 98.0925 -5.4125 97.185 -5.625 96.25 C-6.03039261 92.73659735 -5.58488696 91.97166306 -4 89 C-3.99521963 86.8522367 -3.99521963 86.8522367 -5 85 C-6.91666667 83.83333333 -6.91666667 83.83333333 -9 83 C-11 81 -11 81 -11.25 77.5625 C-11 74 -11 74 -9 71 C-9.928125 70.814375 -9.928125 70.814375 -10.875 70.625 C-13 70 -13 70 -15 68 C-15.125 64.375 -15.125 64.375 -15 61 C-15.66 61.66 -16.32 62.32 -17 63 C-20.125 63.125 -20.125 63.125 -23 63 C-23.103125 63.78375 -23.20625 64.5675 -23.3125 65.375 C-24 68 -24 68 -27 70 C-29.5 70.3125 -29.5 70.3125 -32 70 C-32.433125 69.54625 -32.86625 69.0925 -33.3125 68.625 C-35.29145331 66.71934126 -36.47768566 66.52526961 -39.125 65.9375 C-41.043125 65.4734375 -41.043125 65.4734375 -43 65 C-44.39935013 62.20129973 -44.25265405 60.09501208 -44 57 C-42.875 55.125 -42.875 55.125 -41 54 C-38 53.625 -38 53.625 -35 54 C-33.97895449 54.97850195 -32.9793879 55.97980427 -32 57 C-28.89160979 57.7269226 -28.89160979 57.7269226 -26 58 C-26 57.34 -26 56.68 -26 56 C-26.763125 56.061875 -27.52625 56.12375 -28.3125 56.1875 C-31.55902815 55.96099804 -31.90680186 55.35484791 -34 53 C-34.86625 52.566875 -35.7325 52.13375 -36.625 51.6875 C-39 50 -39 50 -40 47.125 C-40 44 -40 44 -38.5 41.5625 C-36.46120228 38.07955389 -37.42302065 35.89461061 -38 32 C-37 30.0625 -37 30.0625 -35 29 C-31.375 28.75 -31.375 28.75 -28 29 C-27.67 29.33 -27.34 29.66 -27 30 C-26.731875 29.236875 -26.46375 28.47375 -26.1875 27.6875 C-24.3387471 23.50348028 -24.3387471 23.50348028 -22 22 C-18.14751405 22.24078037 -16.23960066 22.84026622 -13 25 C-11.53238987 23.61392377 -10.07625811 22.21568805 -8.625 20.8125 C-7.81289063 20.03519531 -7.00078125 19.25789063 -6.1640625 18.45703125 C-2.67635653 14.49716292 -1.80186081 10.92857496 -1.4375 5.75 C-1.10047847 1.10047847 -1.10047847 1.10047847 0 0 Z " fill="#4C20A2" transform="translate(399,418)"/>
<path d="M0 0 C1.87459676 0.4765924 3.74941252 0.95565764 5.60546875 1.5 C8.89654104 2.18720596 12.14367979 2.27814949 15.5 2.4375 C21.31699425 2.75130389 25.74219567 3.53205103 31 6 C31.1875 8.875 31.1875 8.875 31 12 C27.92308234 14.05127844 27.06355001 14.27260872 23.55078125 14.4140625 C22.70322266 14.45273437 21.85566406 14.49140625 20.98242188 14.53125 C19.66081055 14.57765625 19.66081055 14.57765625 18.3125 14.625 C17.41982422 14.66367187 16.52714844 14.70234375 15.60742188 14.7421875 C13.4051538 14.83640218 11.20289278 14.92201588 9 15 C12.43734063 15.08703823 15.87439837 15.14040272 19.3125 15.1875 C20.28896484 15.21263672 21.26542969 15.23777344 22.27148438 15.26367188 C23.67817383 15.27817383 23.67817383 15.27817383 25.11328125 15.29296875 C25.97735596 15.3086792 26.84143066 15.32438965 27.73168945 15.34057617 C30.05677557 15.17459014 30.05677557 15.17459014 31.76245117 13.6809082 C33.53564728 11.27245383 33.67492762 8.92565146 34 6 C37.99425108 4.64890686 41.99431165 3.31680094 46 2 C46.70769531 1.76539063 47.41539062 1.53078125 48.14453125 1.2890625 C52.73712817 -0.14158846 56.84527323 -0.90725338 61.375 1 C61.91125 1.33 62.4475 1.66 63 2 C62.953125 4.2578125 62.953125 4.2578125 62 7 C59.55971655 8.54794099 57.36572594 9.7143184 54.75 10.875 C53.28691793 11.56331622 51.82468927 12.2534491 50.36328125 12.9453125 C49.26234131 13.45819824 49.26234131 13.45819824 48.13916016 13.98144531 C45.01267827 15.47011028 41.98147768 17.09866868 38.9375 18.75 C37.95652344 19.28109375 36.97554688 19.8121875 35.96484375 20.359375 C32.91856115 21.9958753 32.91856115 21.9958753 29.82983398 24.0847168 C25.87386527 26.33758881 22.22985467 26.47104238 17.7578125 26.28515625 C16.99000458 26.27238144 16.22219666 26.25960663 15.43112183 26.2464447 C12.99486967 26.20451928 10.56048285 26.13620731 8.125 26.0625 C-7.73423563 24.86024946 -7.73423563 24.86024946 -21.5 31.3125 C-24.38398603 33.25919057 -24.94929715 33.19977756 -28.25 32.625 C-35.24946326 30.65019317 -42.22959767 26.34113119 -46 20 C-45.505 18.515 -45.505 18.515 -45 17 C-42.58154055 15.95320412 -40.24255905 15.07818942 -37.75 14.25 C-28.89768775 11.12834286 -20.61587028 7.2970502 -12.9375 1.8125 C-8.56033744 -0.88830243 -4.99188135 -0.54072184 0 0 Z " fill="#4B1FA2" transform="translate(389,549)"/>
<path d="M0 0 C1.98 0.495 1.98 0.495 4 1 C4 72.28 4 143.56 4 217 C2.68 217.33 1.36 217.66 0 218 C-1.82231016 216.17768984 -1.12535144 213.64794599 -1.13374341 211.222188 C-1.13151268 210.38533813 -1.12928196 209.54848825 -1.12698364 208.6862793 C-1.12854363 207.80408313 -1.13010362 206.92188696 -1.13171089 206.01295757 C-1.13572482 203.03336137 -1.13252973 200.0538154 -1.12939453 197.07421875 C-1.1307484 194.9476417 -1.13252825 192.82106489 -1.13470459 190.69448853 C-1.13928066 184.90127111 -1.13748865 179.10807141 -1.1343255 173.31485367 C-1.1318028 167.26678671 -1.13413919 161.21872131 -1.13571167 155.1706543 C-1.13753363 145.01187872 -1.13512637 134.85311041 -1.13037109 124.69433594 C-1.12492843 112.93084602 -1.12669106 101.16737343 -1.1321975 89.40388393 C-1.13672788 79.32409993 -1.13737955 69.24432117 -1.13475883 59.16453648 C-1.13319564 53.13551614 -1.13300342 47.10650395 -1.13629532 41.07748413 C-1.13917295 35.41082315 -1.13720033 29.74418463 -1.13140106 24.07752609 C-1.13007288 21.99129651 -1.13046855 19.90506506 -1.13266373 17.81883621 C-1.13537297 14.98377174 -1.13199689 12.14878044 -1.12698364 9.3137207 C-1.12921436 8.47687083 -1.13144509 7.64002096 -1.13374341 6.777812 C-1.11414983 1.11414983 -1.11414983 1.11414983 0 0 Z " fill="#582FA8" transform="translate(465,391)"/>
<path d="M0 0 C4.53861925 2.14987228 6.85253931 4.47903012 9 9 C11.24486614 16.41438182 10.83485115 24.18274969 7.234375 31.05078125 C5.1836641 34.28908738 3.58790846 36.60618426 0 38 C-5.79851485 38.83327826 -12.71403445 39.68312058 -17.6875 36 C-22.94005059 29.18588032 -23.89239739 22.50256407 -23 14 C-21.72869145 7.74939961 -19.16637972 4.6274581 -14 1 C-9.81612181 -1.0919391 -4.55616307 -0.42881535 0 0 Z " fill="#5026A5" transform="translate(613,508)"/>
<path d="M0 0 C20.44318182 0 20.44318182 0 24.65234375 3.48046875 C29.90357427 9.40142142 29.37917467 15.7635769 29.49609375 23.37890625 C28.73655207 28.92296248 26.36754785 31.94584853 22 35.3125 C14.54314947 39.50697843 9.56556113 38 0 38 C0 25.46 0 12.92 0 0 Z " fill="#4A1EA1" transform="translate(591,454)"/>
<path d="M0 0 C17 0 17 0 23 4 C25.52494179 7.78741268 25.52462826 9.50318634 25 14 C23.5494059 16.60298244 21.89797231 18.67498392 20 21 C20.40992188 21.64066406 20.81984375 22.28132812 21.2421875 22.94140625 C24.33815426 27.91124762 26.75372504 32.26713518 28 38 C25.69 38 23.38 38 21 38 C20.36384766 36.64455078 20.36384766 36.64455078 19.71484375 35.26171875 C19.12832031 34.08222656 18.54179688 32.90273438 17.9375 31.6875 C17.36902344 30.51574219 16.80054688 29.34398437 16.21484375 28.13671875 C13.85609815 24.21523299 13.85609815 24.21523299 7 22 C7 27.28 7 32.56 7 38 C4.69 38 2.38 38 0 38 C0 25.46 0 12.92 0 0 Z " fill="#4F24A4" transform="translate(629,508)"/>
<path d="M0 0 C18 0 18 0 23 3 C25.48386059 6.72579089 25.3804212 8.58711402 25 13 C23.34860695 16.5386994 22.28394771 17.81070153 19 20 C20.11375 21.2065625 20.11375 21.2065625 21.25 22.4375 C24.91230359 26.81974361 28 32.20754104 28 38 C25.69 38 23.38 38 21 38 C20.57589844 37.02417969 20.15179687 36.04835938 19.71484375 35.04296875 C19.12360374 33.75725635 18.53108774 32.47213019 17.9375 31.1875 C17.66228516 30.54490234 17.38707031 29.90230469 17.10351562 29.24023438 C16.81025391 28.61826172 16.51699219 27.99628906 16.21484375 27.35546875 C15.95823975 26.78465576 15.70163574 26.21384277 15.43725586 25.62573242 C13.49170813 23.19150773 13.49170813 23.19150773 7 21 C7 26.61 7 32.22 7 38 C4.69 38 2.38 38 0 38 C0 25.46 0 12.92 0 0 Z " fill="#4F24A4" transform="translate(546,563)"/>
<path d="M0 0 C17.11764706 0 17.11764706 0 23 4 C24.73994279 7.47988558 24.5976415 11.2043407 24 15 C22.57493025 17.45650135 21.05967593 18.99181597 19 21 C19.5775 21.639375 20.155 22.27875 20.75 22.9375 C24.0147456 27.38118152 27 32.38424209 27 38 C24.69 38 22.38 38 20 38 C19.56429688 37.01257813 19.12859375 36.02515625 18.6796875 35.0078125 C18.07921192 33.71303703 17.4775887 32.41879337 16.875 31.125 C16.59140625 30.47402344 16.3078125 29.82304687 16.015625 29.15234375 C15.03014616 26.96573449 15.03014616 26.96573449 13 24 C11.02 23.34 9.04 22.68 7 22 C7 27.61 7 33.22 7 39 C4.69 39 2.38 39 0 39 C0 26.13 0 13.26 0 0 Z " fill="#5126A5" transform="translate(483,399)"/>
<path d="M0 0 C1.98 0 3.96 0 6 0 C8.04223633 2.07958984 8.04223633 2.07958984 9.83203125 4.9609375 C10.48494141 5.98960937 11.13785156 7.01828125 11.81054688 8.078125 C12.47119141 9.16609375 13.13183594 10.2540625 13.8125 11.375 C14.49248047 12.45523438 15.17246094 13.53546875 15.87304688 14.6484375 C20.57267934 22.14535868 20.57267934 22.14535868 22 25 C22.33 16.75 22.66 8.5 23 0 C24.98 0 26.96 0 29 0 C29 12.54 29 25.08 29 38 C27.02 38 25.04 38 23 38 C20.94189453 35.88867188 20.94189453 35.88867188 19.1328125 32.96875 C18.47539063 31.93105469 17.81796875 30.89335938 17.140625 29.82421875 C16.47546875 28.72722656 15.8103125 27.63023437 15.125 26.5 C14.09246094 24.85451172 14.09246094 24.85451172 13.0390625 23.17578125 C11.34025053 20.46240101 9.66760713 17.73266919 8 15 C7.67 22.59 7.34 30.18 7 38 C4.69 38 2.38 38 0 38 C0 25.46 0 12.92 0 0 Z " fill="#4D22A3" transform="translate(540,508)"/>
<path d="M0 0 C1.65 0 3.3 0 5 0 C6.95703125 1.984375 6.95703125 1.984375 8.8125 4.75 C9.48925781 5.74128906 10.16601562 6.73257812 10.86328125 7.75390625 C11.56839844 8.82511719 12.27351562 9.89632813 13 11 C13.76305934 12.13496513 14.52738871 13.26907741 15.29296875 14.40234375 C17.21119864 17.25762045 19.10756861 20.1275595 21 23 C21.33 15.41 21.66 7.82 22 0 C24.31 0 26.62 0 29 0 C29 12.54 29 25.08 29 38 C23 38 23 38 21.1730957 36.2434082 C20.67898193 35.43734131 20.18486816 34.63127441 19.67578125 33.80078125 C19.12212891 32.92099609 18.56847656 32.04121094 17.99804688 31.13476562 C17.44181641 30.20341797 16.88558594 29.27207031 16.3125 28.3125 C15.74466797 27.40048828 15.17683594 26.48847656 14.59179688 25.54882812 C13.03868747 23.04528131 11.51312292 20.52786274 10 18 C9.01 16.35 8.02 14.7 7 13 C6.67 21.25 6.34 29.5 6 38 C4.02 38 2.04 38 0 38 C0 25.46 0 12.92 0 0 Z " fill="#4D21A3" transform="translate(554,454)"/>
<path d="M0 0 C3.1875 1.5 3.1875 1.5 5 3 C3.25 6.875 3.25 6.875 1 8 C0.4225 7.690625 -0.155 7.38125 -0.75 7.0625 C-3.76566861 5.63843427 -5.70166169 5.51899233 -9 6 C-12.05652533 8.81376881 -13.24949633 10.9924215 -13.4609375 15.06640625 C-13.45302747 16.56535704 -13.42386751 18.06432511 -13.375 19.5625 C-13.37306641 20.69461914 -13.37306641 20.69461914 -13.37109375 21.84960938 C-13.31027286 25.68470418 -13.15376718 28.75211909 -11 32 C-6.39729169 32.46607397 -6.39729169 32.46607397 -2.3125 30.78125 C-0.67597796 28.56025581 -0.51059486 27.04620902 -0.3125 24.3125 C-0.24675781 23.50425781 -0.18101562 22.69601562 -0.11328125 21.86328125 C-0.07589844 21.24839844 -0.03851562 20.63351562 0 20 C2.31 20 4.62 20 7 20 C7.1171893 23.35386761 7.18757584 26.70720149 7.25 30.0625 C7.30027344 31.47692383 7.30027344 31.47692383 7.3515625 32.91992188 C7.43916149 39.2051494 6.73707411 42.89040049 3 48 C-1.06451613 51 -1.06451613 51 -4 51 C-4.8125 48.875 -4.8125 48.875 -5 46 C-3.37873325 43.96302383 -1.71140469 41.96185416 0 40 C0 38.68 0 37.36 0 36 C-0.66 36.495 -1.32 36.99 -2 37.5 C-5.74567503 39.37283751 -8.93128339 39.83767695 -13 39 C-17.07916203 36.4601444 -19.85229837 33.73166696 -21.53125 29.14453125 C-23.19066222 21.55272033 -22.81874967 12.890659 -19 6 C-13.41829115 -0.20686024 -7.97474384 -0.68945912 0 0 Z " fill="#5227A5" transform="translate(550,399)"/>
<path d="M0 0 C1.98 0 3.96 0 6 0 C9.62547941 7.71240089 12.83591903 15.51622541 15.8125 23.5 C16.21919922 24.56992187 16.62589844 25.63984375 17.04492188 26.7421875 C17.62016602 28.27746094 17.62016602 28.27746094 18.20703125 29.84375 C18.5522583 30.76349609 18.89748535 31.68324219 19.25317383 32.63085938 C20 35 20 35 20 38 C17.69 38 15.38 38 13 38 C11.515 33.545 11.515 33.545 10 29 C5.38 29 0.76 29 -4 29 C-4.99 31.97 -5.98 34.94 -7 38 C-9.31 38 -11.62 38 -14 38 C-11.69842556 29.55966227 -8.55104064 21.488484 -5.3125 13.375 C-4.79584522 12.07176467 -4.27956658 10.76838015 -3.76367188 9.46484375 C-2.51279075 6.30841474 -1.25815732 3.15353412 0 0 Z " fill="#5025A4" transform="translate(522,563)"/>
<path d="M0 0 C1.4540625 0.0309375 1.4540625 0.0309375 2.9375 0.0625 C4.93561278 5.15115881 6.92932902 10.24150921 8.91894531 15.33349609 C9.59676719 17.06639354 10.27579962 18.79881798 10.95605469 20.53076172 C11.93220665 23.01667641 12.90402833 25.50424566 13.875 27.9921875 C14.18123291 28.76932098 14.48746582 29.54645447 14.80297852 30.34713745 C16.9375 35.83475659 16.9375 35.83475659 16.9375 38.0625 C14.6275 38.0625 12.3175 38.0625 9.9375 38.0625 C6.9375 31.4375 6.9375 31.4375 6.9375 28.0625 C1.9875 28.0625 -2.9625 28.0625 -8.0625 28.0625 C-8.371875 29.526875 -8.68125 30.99125 -9 32.5 C-9.9375 36.9375 -9.9375 36.9375 -11.0625 38.0625 C-13.06208364 38.10330783 -15.06295254 38.10504356 -17.0625 38.0625 C-16.44564843 33.34041055 -15.11445985 29.13738753 -13.375 24.73046875 C-13.11243408 24.05325272 -12.84986816 23.37603668 -12.5793457 22.67829895 C-12.0273007 21.25785968 -11.47248716 19.83849356 -10.91503906 18.42016602 C-10.05919719 16.24159259 -9.21253251 14.05961828 -8.3671875 11.87695312 C-7.8286557 10.4945848 -7.28961148 9.11241597 -6.75 7.73046875 C-6.49581299 7.0763652 -6.24162598 6.42226166 -5.97973633 5.74833679 C-3.74431634 0.07641462 -3.74431634 0.07641462 0 0 Z " fill="#4E23A3" transform="translate(533.0625,453.9375)"/>
<path d="M0 0 C1.98 0 3.96 0 6 0 C6 5.28 6 10.56 6 16 C11.28 16 16.56 16 22 16 C22 10.72 22 5.44 22 0 C24.31 0 26.62 0 29 0 C29 12.54 29 25.08 29 38 C26.69 38 24.38 38 22 38 C22 32.39 22 26.78 22 21 C17.05 21 12.1 21 7 21 C7 26.61 7 32.22 7 38 C4.69 38 2.38 38 0 38 C0 25.46 0 12.92 0 0 Z " fill="#4F24A4" transform="translate(483,454)"/>
<path d="M0 0 C2.31 0 4.62 0 7 0 C7 12.87 7 25.74 7 39 C4.69 39 2.38 39 0 39 C0 33.06 0 27.12 0 21 C-5.28 21 -10.56 21 -16 21 C-16 26.61 -16 32.22 -16 38 C-17.98 38 -19.96 38 -22 38 C-22 25.79 -22 13.58 -22 1 C-20.02 1 -18.04 1 -16 1 C-16 5.95 -16 10.9 -16 16 C-10.72 16 -5.44 16 0 16 C0 10.72 0 5.44 0 0 Z " fill="#4F24A4" transform="translate(586,399)"/>
<path d="M0 0 C7.59 0 15.18 0 23 0 C23 1.98 23 3.96 23 6 C17.72 6 12.44 6 7 6 C7 9.3 7 12.6 7 16 C11.29 16 15.58 16 20 16 C20 17.65 20 19.3 20 21 C15.71 21 11.42 21 7 21 C7 25.29 7 29.58 7 34 C12.61 34 18.22 34 24 34 C24 35.65 24 37.3 24 39 C16.08 39 8.16 39 0 39 C0 26.13 0 13.26 0 0 Z " fill="#582FA8" transform="translate(578,562)"/>
<path d="M0 0 C7.59 0 15.18 0 23 0 C23 1.65 23 3.3 23 5 C17.72 5 12.44 5 7 5 C7 8.63 7 12.26 7 16 C11.29 16 15.58 16 20 16 C19.67 17.65 19.34 19.3 19 21 C15.04 21 11.08 21 7 21 C7 24.96 7 28.92 7 33 C12.61 33 18.22 33 24 33 C24 34.65 24 36.3 24 38 C16.08 38 8.16 38 0 38 C0 25.46 0 12.92 0 0 Z " fill="#5025A4" transform="translate(511,508)"/>
<path d="M0 0 C2.33203125 1.03125 2.33203125 1.03125 4 2 C3.67 3.65 3.34 5.3 3 7 C2.319375 6.835 1.63875 6.67 0.9375 6.5 C-2.4164822 5.92910941 -5.60389805 5.93340977 -9 6 C-9.76956136 8.34533951 -9.76956136 8.34533951 -10 11 C-7.92144091 13.62020316 -5.43597368 14.97329369 -2.5 16.5 C0.43745985 18.02747912 2.96142467 19.3460057 5 22 C5.7911392 26.1418464 5.40340646 29.96907239 3.875 33.875 C0.60470152 37.58133828 -2.56542583 38.843501 -7.4375 39.375 C-11.66570623 38.92992566 -14.26523966 38.01677058 -18 36 C-18.495 34.515 -18.495 34.515 -19 33 C-18.01 32.01 -17.02 31.02 -16 30 C-15.505 30.33 -15.01 30.66 -14.5 31 C-10.87194845 32.45122062 -7.89898713 32.19175347 -4 32 C-2.69703127 30.89512551 -2.69703127 30.89512551 -2.57421875 28.1640625 C-2.65253465 24.79947381 -2.65253465 24.79947381 -5.51953125 23.0234375 C-7.14955078 22.20746094 -7.14955078 22.20746094 -8.8125 21.375 C-15.84732048 17.79455374 -15.84732048 17.79455374 -18 14 C-18.64685544 9.98949625 -19.02367442 7.60139166 -16.81640625 4.1484375 C-11.96801075 -0.75809224 -6.60431835 -1.05183631 0 0 Z " fill="#4E23A3" transform="translate(500,508)"/>
<path d="M0 0 C2.69990662 1.79993774 4.5418865 3.083773 6 6 C6.15112939 8.61860735 6.23133862 11.19290882 6.25 13.8125 C6.270625 14.52470703 6.29125 15.23691406 6.3125 15.97070312 C6.34624593 20.53062152 5.75402761 23.34882703 3 27 C1.17206911 28.82793089 -1.35280095 28.34619549 -3.796875 28.5234375 C-7.4056819 27.66602593 -8.79696617 25.92471733 -11 23 C-11.66081998 20.13814117 -11.61108905 17.42366179 -11.5 14.5 C-11.50257813 13.75363281 -11.50515625 13.00726562 -11.5078125 12.23828125 C-11.42764819 7.70899795 -10.88832842 4.68120288 -8 1 C-5.14675563 -0.42662219 -3.16545451 -0.31033868 0 0 Z " fill="#FCFBFD" transform="translate(609,513)"/>
<path d="M0 0 C9.37931034 0 9.37931034 0 13 3 C17.07153912 8.6070344 16.91489323 14.31036784 16 21 C14.64157584 23.85737497 13.4898884 24.91544227 11 27 C8 28 8 28 0 28 C0 18.76 0 9.52 0 0 Z " fill="#F8F6FB" transform="translate(597,459)"/>
<path d="M0 0 C3 1.3125 3 1.3125 5 3 C5 3.99 5 4.98 5 6 C4.01 6.66 3.02 7.32 2 8 C1.34 7.67 0.68 7.34 0 7 C-4.07176919 6.48398164 -4.07176919 6.48398164 -8 7 C-11.31988663 10.94189699 -11.40515651 14.47391496 -11.375 19.5 C-11.38273437 20.7890625 -11.39046875 22.078125 -11.3984375 23.40625 C-10.98442084 27.14051788 -10.26265764 29.04198903 -8 32 C-5.47524538 33.26237731 -3.68799534 33.09856404 -0.875 33.0625 C0.03507812 33.05347656 0.94515625 33.04445313 1.8828125 33.03515625 C2.58148438 33.02355469 3.28015625 33.01195312 4 33 C4.33 34.32 4.66 35.64 5 37 C0.21042055 39.82866927 -4.59178899 39.49897185 -10 39 C-13.91809122 37.58281807 -16.31143619 35.2128935 -18.2734375 31.48828125 C-19.28918117 28.00963223 -19.40251502 24.59686804 -19.4375 21 C-19.4526062 19.98546753 -19.4526062 19.98546753 -19.46801758 18.95043945 C-19.37222445 13.3489193 -18.23905958 8.54101927 -14.46484375 4.2578125 C-9.46626918 0.55042983 -6.27432133 -0.68381705 0 0 Z " fill="#4E23A4" transform="translate(501,562)"/>
<path d="M0 0 C8.91 0 17.82 0 27 0 C26.67 1.65 26.34 3.3 26 5 C22.7 5 19.4 5 16 5 C16 15.89 16 26.78 16 38 C14.02 38 12.04 38 10 38 C10 27.11 10 16.22 10 5 C6.7 5 3.4 5 0 5 C0 3.35 0 1.7 0 0 Z " fill="#4F24A4" transform="translate(597,399)"/>
<path d="M0 0 C2.31 0 4.62 0 7 0 C7 12.87 7 25.74 7 39 C4.69 39 2.38 39 0 39 C0 26.13 0 13.26 0 0 Z " fill="#5329A6" transform="translate(515,399)"/>
<path d="M0 0 C2.31 0 4.62 0 7 0 C7 12.54 7 25.08 7 38 C4.69 38 2.38 38 0 38 C0 25.46 0 12.92 0 0 Z " fill="#5025A4" transform="translate(577,508)"/>
<path d="M0 0 C6.3 -0.48461538 6.3 -0.48461538 9.4375 1.6875 C11 4 11 4 11.5 6.5625 C11 9 11 9 9.4375 10.8125 C6.19571384 12.39183172 3.55711122 12.20521796 0 12 C0 8.04 0 4.08 0 0 Z " fill="#F8F7FB" transform="translate(636,513)"/>
<path d="M0 0 C0.66 0 1.32 0 2 0 C2.86627399 1.59766103 3.71766465 3.20339944 4.5625 4.8125 C5.03816406 5.70582031 5.51382812 6.59914063 6.00390625 7.51953125 C7 10 7 10 6 13 C5.608125 12.505 5.21625 12.01 4.8125 11.5 C3.06318822 9.78954136 3.06318822 9.78954136 0.5 9.625 C-2.0116159 9.80827772 -2.0116159 9.80827772 -3.75 11.25 C-5.12041836 13.16858571 -5.6018827 14.69091968 -6 17 C-7.98 16.34 -9.96 15.68 -12 15 C-9.85582244 8.43345624 -6.34234662 5.2403379 -1 1 C-0.67 0.67 -0.34 0.34 0 0 Z " fill="#F1EDF7" transform="translate(395,438)"/>
<path d="M0 0 C6 0 6 0 8.875 1.6875 C11 4 11 4 11.5 6.5625 C11 9 11 9 10 10.8125 C6.76011038 12.73618446 3.7174181 12.18282384 0 12 C0 8.04 0 4.08 0 0 Z " fill="#F7F5FB" transform="translate(553,567)"/>
<path d="M0 0 C6 0 6 0 8.375 1.0625 C10 3 10 3 10.4375 6.5625 C10.293125 7.696875 10.14875 8.83125 10 10 C6.3558226 12.4294516 4.28758728 12.16179575 0 12 C0 8.04 0 4.08 0 0 Z " fill="#FBFAFD" transform="translate(490,404)"/>
<path d="M0 0 C2.76252672 0.29079229 4.58651708 0.71056195 6.875 2.3125 C8 4 8 4 7.6875 6.1875 C7.3471875 7.0846875 7.3471875 7.0846875 7 8 C4.69 8.33 2.38 8.66 0 9 C0.47780303 10.29217171 0.95729106 11.58372046 1.4375 12.875 C1.70433594 13.59429687 1.97117187 14.31359375 2.24609375 15.0546875 C2.97916854 17.03648845 2.97916854 17.03648845 4 19 C3.67 19.66 3.34 20.32 3 21 C2.01 20.67 1.02 20.34 0 20 C0 19.34 0 18.68 0 18 C-0.53239017 16.43431493 -1.07560646 14.87229991 -1.625 13.3125 C-3.16092045 8.36023314 -3.0161401 5.73792924 -1 1 C-0.67 0.67 -0.34 0.34 0 0 Z " fill="#633EAE" transform="translate(406,425)"/>
<path d="M0 0 C2.18614424 2.18614424 2.68256535 3.53879949 3.625 6.4375 C3.88539063 7.21996094 4.14578125 8.00242187 4.4140625 8.80859375 C5 11 5 11 5 14 C1.7 14 -1.6 14 -5 14 C-4.54857225 12.22739369 -4.08859477 10.4569632 -3.625 8.6875 C-3.36976563 7.70136719 -3.11453125 6.71523438 -2.8515625 5.69921875 C-2 3 -2 3 0 0 Z " fill="#EDE9F5" transform="translate(525,572)"/>
<path d="M0 0 C-0.226875 0.9075 -0.45375 1.815 -0.6875 2.75 C-1.29457798 5.94082576 -1.29457798 5.94082576 0.1875 8.25 C2.03252857 10.03140689 3.64081232 11.02378441 6 12 C5.8125 13.875 5.8125 13.875 5 16 C2.4375 17.25 2.4375 17.25 0 18 C-0.12375 16.88625 -0.2475 15.7725 -0.375 14.625 C-0.6465813 10.96896323 -0.6465813 10.96896323 -3 9 C-4.98821313 8.60235737 -6.98944339 8.26224651 -9 8 C-8.34 7.01 -7.68 6.02 -7 5 C-6.61500109 3.34450469 -6.27206865 1.6777567 -6 0 C-2.25 -1.125 -2.25 -1.125 0 0 Z " fill="#EEEAF6" transform="translate(417,491)"/>
<path d="M0 0 C2.63595772 2.63595772 3.07702112 5.06187181 4.125 8.625 C4.47820313 9.81351562 4.83140625 11.00203125 5.1953125 12.2265625 C5.46085938 13.14179688 5.72640625 14.05703125 6 15 C2.7 15 -0.6 15 -4 15 C-2.91266548 9.87399439 -1.77362508 4.94081272 0 0 Z " fill="#F2EFF8" transform="translate(532,462)"/>
<path d="M0 0 C2.97 0.33 5.94 0.66 9 1 C9 1.66 9 2.32 9 3 C8.38125 3.226875 7.7625 3.45375 7.125 3.6875 C4.38589791 5.37929835 3.94975528 6.99244161 3 10 C1.3603125 10.2165625 1.3603125 10.2165625 -0.3125 10.4375 C-3.93122987 10.88288104 -3.93122987 10.88288104 -7 12 C-9.00875442 11.72428861 -11.01178687 11.39764263 -13 11 C-12.67 9.68 -12.34 8.36 -12 7 C-10.515 7.99 -10.515 7.99 -9 9 C-4.49149818 8.65554402 -4.49149818 8.65554402 -1 6 C-0.60235737 4.01178687 -0.26224651 2.01055661 0 0 Z " fill="#EBE6F4" transform="translate(390,458)"/>
<path d="M0 0 C2.5 0.125 2.5 0.125 3.5 1.125 C3.79386153 4.84724599 3.64809171 5.90286243 1.5 9.125 C3.975 10.115 3.975 10.115 6.5 11.125 C3.19564916 12.24877697 1.4493138 12.02054742 -1.75 10.6875 C-2.45640625 10.40003906 -3.1628125 10.11257813 -3.890625 9.81640625 C-4.42171875 9.58824219 -4.9528125 9.36007812 -5.5 9.125 C-4.84 8.465 -4.18 7.805 -3.5 7.125 C-3.45919217 5.12541636 -3.45745644 3.12454746 -3.5 1.125 C-2.5 0.125 -2.5 0.125 0 0 Z " fill="#6F4CB4" transform="translate(416.5,435.875)"/>
<path d="M0 0 C1.2065625 0.0309375 1.2065625 0.0309375 2.4375 0.0625 C2.7675 1.0525 3.0975 2.0425 3.4375 3.0625 C1.48227499 5.45221946 0.43862759 6.06220084 -2.625 6.875 C-5.8773689 7.79240818 -5.8773689 7.79240818 -6.9375 11.1875 C-7.14375 12.13625 -7.35 13.085 -7.5625 14.0625 C-8.2225 14.0625 -8.8825 14.0625 -9.5625 14.0625 C-9.541875 12.969375 -9.52125 11.87625 -9.5 10.75 C-9.37705548 7.11865809 -9.37705548 7.11865809 -10.5625 4.0625 C-9.428125 3.588125 -8.29375 3.11375 -7.125 2.625 C-1.2071281 0.02944215 -1.2071281 0.02944215 0 0 Z " fill="#F3F0F8" transform="translate(436.5625,485.9375)"/>
<path d="M0 0 C0.66 0 1.32 0 2 0 C2.309375 0.94875 2.61875 1.8975 2.9375 2.875 C3.87394742 5.86080408 3.87394742 5.86080408 5 8 C4.154375 8.721875 3.30875 9.44375 2.4375 10.1875 C-0.32249121 12.71922674 -0.32249121 12.71922674 0.125 15.6875 C0.94759815 17.97998132 0.94759815 17.97998132 2 20 C-0.31 20.33 -2.62 20.66 -5 21 C-4.70703125 19.01432292 -4.4140625 17.02864583 -4.12109375 15.04296875 C-3.86095201 12.7974658 -3.86095201 12.7974658 -5 10 C-4.360625 9.79375 -3.72125 9.5875 -3.0625 9.375 C-0.67137131 8.11491494 -0.67137131 8.11491494 -0.25 5 C0.02768183 2.16955119 0.02768183 2.16955119 0 0 Z " fill="#EBE7F4" transform="translate(422,469)"/>
<path d="M0 0 C0.12375 0.639375 0.2475 1.27875 0.375 1.9375 C0.58125 2.618125 0.7875 3.29875 1 4 C1.66 4.33 2.32 4.66 3 5 C1.65625 6.9765625 1.65625 6.9765625 -1 9 C-4.50525644 9.56837856 -7.95795578 9.46631457 -11.5 9.375 C-12.45003906 9.37371094 -13.40007812 9.37242187 -14.37890625 9.37109375 C-18.84666506 9.31453984 -22.06001098 9.27263463 -26 7 C-25.31373535 6.97494385 -24.6274707 6.9498877 -23.92041016 6.92407227 C-20.82174183 6.80828573 -17.72339077 6.68548115 -14.625 6.5625 C-13.54476563 6.52318359 -12.46453125 6.48386719 -11.3515625 6.44335938 C-9.8046875 6.38051758 -9.8046875 6.38051758 -8.2265625 6.31640625 C-7.27346191 6.27974854 -6.32036133 6.24309082 -5.33837891 6.20532227 C-2.97867651 6.14236535 -2.97867651 6.14236535 -1 5 C-0.34444881 2.47266765 -0.34444881 2.47266765 0 0 Z " fill="#F5F3FA" transform="translate(420,556)"/>
<path d="M0 0 C0.99 0 1.98 0 3 0 C3.03738281 0.56847656 3.07476562 1.13695312 3.11328125 1.72265625 C3.56978622 7.08435193 4.63489082 11.1669508 7 16 C6.01 16.33 5.02 16.66 4 17 C-1.82510578 7.63822285 -1.82510578 7.63822285 -1 2 C-0.67 1.34 -0.34 0.68 0 0 Z " fill="#EAE5F4" transform="translate(401,429)"/>
<path d="M0 0 C1.98 0 3.96 0 6 0 C6 1.98 6 3.96 6 6 C3.03 6.66 0.06 7.32 -3 8 C-2.01 5.36 -1.02 2.72 0 0 Z " fill="#EAE5F4" transform="translate(401,481)"/>
<path d="M0 0 C0.66 0 1.32 0 2 0 C2.28875 0.61875 2.5775 1.2375 2.875 1.875 C3.93720042 4.13325765 3.93720042 4.13325765 6 6 C4.625 8 4.625 8 3 10 C2.34 10 1.68 10 1 10 C0.63883954 8.5225254 0.28624952 7.04295325 -0.0625 5.5625 C-0.25972656 4.73878906 -0.45695312 3.91507812 -0.66015625 3.06640625 C-0.82837891 2.04353516 -0.82837891 2.04353516 -1 1 C-0.67 0.67 -0.34 0.34 0 0 Z " fill="#E2DBEF" transform="translate(404,506)"/>
<path d="M0 0 C2.5 1.0625 2.5 1.0625 5 3 C5.25 6.5 5.25 6.5 5 10 C5.33 10.99 5.66 11.98 6 13 C5.01 13 4.02 13 3 13 C2.87625 11.88625 2.7525 10.7725 2.625 9.625 C2.3534187 5.96896323 2.3534187 5.96896323 0 4 C0 2.68 0 1.36 0 0 Z " fill="#CFC4E6" transform="translate(407,465)"/>
<path d="M0 0 C0.721875 0.391875 1.44375 0.78375 2.1875 1.1875 C4.17970557 1.87710962 6.17855606 2.54829057 8.1875 3.1875 C8.1875 3.8475 8.1875 4.5075 8.1875 5.1875 C2.62570225 5.55828652 2.62570225 5.55828652 0.5625 3.8125 C0.10875 3.27625 -0.345 2.74 -0.8125 2.1875 C-2.91239652 1.01175289 -2.91239652 1.01175289 -4.8125 0.1875 C-1.8125 -0.8125 -1.8125 -0.8125 0 0 Z " fill="#CEC2E5" transform="translate(364.8125,470.8125)"/>
<path d="M0 0 C0.515625 0.350625 1.03125 0.70125 1.5625 1.0625 C4.91236387 2.35090918 7.49408725 1.50995095 11 1 C11.99 1.66 12.98 2.32 14 3 C8.83955235 4.512545 5.34001821 5.33500455 0 4 C0 2.68 0 1.36 0 0 Z " fill="#CABDE3" transform="translate(377,465)"/>
<path d="M0 0 C2.475 0.495 2.475 0.495 5 1 C5.33 1.99 5.66 2.98 6 4 C4.02 4.33 2.04 4.66 0 5 C0 3.35 0 1.7 0 0 Z " fill="#F7F5FA" transform="translate(406,427)"/>
<path d="M0 0 C2.71675995 0.36712972 4.61063713 0.72744599 6.875 2.3125 C8 4 8 4 7.875 6.125 C7.441875 7.053125 7.441875 7.053125 7 8 C6.01 8.33 5.02 8.66 4 9 C4 8.01 4 7.02 4 6 C4.66 6 5.32 6 6 6 C3.9927092 2.9890638 3.16115776 2.36983503 0 1 C0 0.67 0 0.34 0 0 Z " fill="#6C49B3" transform="translate(406,425)"/>
<path d="M0 0 C0.99 0 1.98 0 3 0 C2.67 1.65 2.34 3.3 2 5 C1.34 5 0.68 5 0 5 C-0.33 5.99 -0.66 6.98 -1 8 C-1.125 2.25 -1.125 2.25 0 0 Z " fill="#C5B7E0" transform="translate(401,429)"/>
<path d="M0 0 C0.185625 0.9590625 0.185625 0.9590625 0.375 1.9375 C0.684375 2.9584375 0.684375 2.9584375 1 4 C1.66 4.33 2.32 4.66 3 5 C1.68 6.32 0.36 7.64 -1 9 C-1.66 8.01 -2.32 7.02 -3 6 C-2.34 5.67 -1.68 5.34 -1 5 C-0.34444881 2.47266765 -0.34444881 2.47266765 0 0 Z " fill="#D9D0EB" transform="translate(420,556)"/>
<path d="M0 0 C1.66611905 -0.042721 3.33382885 -0.04063832 5 0 C6 1 6 1 6.0625 3.5625 C6.041875 4.366875 6.02125 5.17125 6 6 C5.01 6 4.02 6 3 6 C3 4.68 3 3.36 3 2 C2.01 2 1.02 2 0 2 C0 1.34 0 0.68 0 0 Z " fill="#6944B1" transform="translate(414,436)"/>
<path d="M0 0 C0.99 0.33 1.98 0.66 3 1 C2.67 2.32 2.34 3.64 2 5 C1.01 5 0.02 5 -1 5 C-0.67 3.35 -0.34 1.7 0 0 Z " fill="#F0ECF7" transform="translate(415,437)"/>
</svg>
